<svg xmlns="http://www.w3.org/2000/svg" viewBox="0 0 171.6 97.4" width="172" height="97">
  <path d="M1040 858 840 657Q825 699 799.0 732.5Q773 766 740.5 789.0Q708 812 670.0 824.0Q632 836 592 836Q536 836 486.5 813.0Q437 790 400.5 748.5Q364 707 343.0 650.0Q322 593 322 524Q322 468 343.0 419.0Q364 370 400.5 333.0Q437 296 486.5 275.0Q536 254 592 254Q632 254 669.0 265.0Q706 276 738.5 296.5Q771 317 796.5 346.5Q822 376 838 412L1038 211Q1000 157 950.5 114.0Q901 71 843.5 41.0Q786 11 722.5 -4.5Q659 -20 592 -20Q479 -20 379.5 22.5Q280 65 205.5 139.0Q131 213 88.0 312.0Q45 411 45 524Q45 647 88.0 754.0Q131 861 205.5 940.5Q280 1020 379.5 1066.0Q479 1112 592 1112Q659 1112 723.5 1095.0Q788 1078 846.5 1045.5Q905 1013 954.5 966.0Q1004 919 1040 858Z" transform="translate(4, 74.91015625) translate(0.0, 0) scale(0.03515625, -0.03515625)" fill="#000000"/>
  <path d="M1139 545Q1139 425 1096.0 321.5Q1053 218 979.0 142.5Q905 67 805.5 23.5Q706 -20 592 -20Q479 -20 379.5 23.5Q280 67 205.5 142.5Q131 218 88.0 321.5Q45 425 45 545Q45 667 88.0 771.0Q131 875 205.5 950.5Q280 1026 379.5 1069.0Q479 1112 592 1112Q706 1112 805.5 1071.5Q905 1031 979.0 956.5Q1053 882 1096.0 777.5Q1139 673 1139 545ZM864 545Q864 611 842.5 664.5Q821 718 784.0 756.5Q747 795 697.5 815.5Q648 836 592 836Q536 836 486.5 815.5Q437 795 400.5 756.5Q364 718 343.0 664.5Q322 611 322 545Q322 483 343.0 430.0Q364 377 400.5 338.0Q437 299 486.5 276.5Q536 254 592 254Q648 254 697.5 275.0Q747 296 784.0 334.0Q821 372 842.5 426.0Q864 480 864 545Z" transform="translate(4, 74.91015625) translate(37.58203125, 0) scale(0.03515625, -0.03515625)" fill="#000000"/>
  <path d="M891 125Q858 95 820.5 68.5Q783 42 742.0 22.5Q701 3 657.5 -8.5Q614 -20 569 -20Q470 -20 383.0 15.0Q296 50 230.5 114.5Q165 179 127.5 271.5Q90 364 90 479V1071H362V479Q362 425 378.5 382.5Q395 340 423.0 311.0Q451 282 488.5 267.0Q526 252 569 252Q611 252 648.5 271.5Q686 291 714.0 323.0Q742 355 758.0 395.5Q774 436 774 479V1071H1047V0H981Z" transform="translate(4, 74.91015625) translate(79.27734375, 0) scale(0.03515625, -0.03515625)" fill="#000000"/>
  <path d="M379 -408H104V1071H170L279 942Q316 977 360.0 1008.0Q404 1039 451.5 1061.5Q499 1084 550.0 1097.0Q601 1110 653 1110Q766 1110 865.5 1069.5Q965 1029 1039.5 955.0Q1114 881 1157.0 776.5Q1200 672 1200 545Q1200 413 1157.0 307.5Q1114 202 1039.5 128.5Q965 55 865.5 16.0Q766 -23 653 -23Q617 -23 581.5 -15.0Q546 -7 511.5 6.5Q477 20 443.5 37.0Q410 54 379 72ZM926 545Q926 613 904.5 667.0Q883 721 846.0 758.5Q809 796 759.0 816.0Q709 836 653 836Q597 836 547.5 816.0Q498 796 461.0 758.5Q424 721 402.5 667.0Q381 613 381 545Q381 480 402.5 426.0Q424 372 461.0 334.0Q498 296 547.5 275.0Q597 254 653 254Q709 254 759.0 275.0Q809 296 846.0 334.0Q883 372 904.5 426.0Q926 480 926 545Z" transform="translate(4, 74.91015625) translate(119.7421875, 0) scale(0.03515625, -0.03515625)" fill="#000000"/>
</svg>
